<svg width="155" height="155" viewBox="0 0 155 155" fill="none" xmlns="http://www.w3.org/2000/svg">
<path d="M77.4937 93.7756C86.4822 93.7756 93.7687 86.489 93.7687 77.5006C93.7687 68.5122 86.4822 61.2256 77.4937 61.2256C68.5053 61.2256 61.2188 68.5122 61.2188 77.5006C61.2188 86.489 68.5053 93.7756 77.4937 93.7756Z" fill="#999999"/>
<path d="M77.5 0C34.698 0 0 34.698 0 77.5C0 120.302 34.698 155 77.5 155C120.302 155 155 120.302 155 77.5C155 34.698 120.302 0 77.5 0ZM125.382 97.1974C125.01 104.565 122.939 111.831 117.57 117.144C112.148 122.507 104.848 124.505 97.4091 124.873H57.5912C50.1512 124.505 42.8519 122.508 37.4303 117.144C32.0605 111.831 29.9903 104.565 29.6183 97.1974V57.8026C29.9903 50.4345 32.0608 43.1687 37.4303 37.856C42.8519 32.493 50.1521 30.4947 57.5912 30.1267H97.4088C104.849 30.4947 112.148 32.492 117.57 37.856C122.939 43.1687 125.01 50.4345 125.382 57.8026L125.382 97.1974Z" fill="#999999"/>
<path d="M96.9063 39.1028C87.2077 38.8368 67.7955 38.8368 58.0968 39.1028C53.0497 39.2414 47.328 40.4978 43.732 44.3387C39.9953 48.3312 38.5832 53.1548 38.44 58.551C38.1883 68.0221 38.44 96.4491 38.44 96.4491C38.604 101.845 39.9953 106.669 43.732 110.661C47.328 114.503 53.0497 115.759 58.0968 115.897C67.7955 116.163 87.2077 116.163 96.9063 115.897C101.953 115.759 107.675 114.502 111.271 110.661C115.008 106.669 116.42 101.845 116.563 96.4491V58.551C116.42 53.1548 115.008 48.3312 111.271 44.3387C107.674 40.4966 101.952 39.2414 96.9063 39.1028ZM77.5003 102.726C72.511 102.726 67.6338 101.247 63.4854 98.4749C59.3369 95.703 56.1036 91.7632 54.1943 87.1537C52.285 82.5442 51.7854 77.472 52.7588 72.5786C53.7321 67.6852 56.1347 63.1903 59.6627 59.6624C63.1906 56.1344 67.6855 53.7319 72.5789 52.7585C77.4723 51.7851 82.5445 52.2847 87.154 54.194C91.7635 56.1033 95.7033 59.3366 98.4752 63.4851C101.247 67.6335 102.727 72.5107 102.727 77.5C102.727 84.1904 100.069 90.6068 95.338 95.3377C90.6071 100.069 84.1907 102.726 77.5003 102.726ZM102.834 57.4808C101.836 57.4806 100.861 57.1845 100.031 56.63C99.2016 56.0754 98.5552 55.2874 98.1735 54.3655C97.7918 53.4436 97.6921 52.4292 97.8869 51.4506C98.0817 50.472 98.5623 49.5731 99.268 48.8676C99.9736 48.1622 100.873 47.6818 101.851 47.4872C102.83 47.2926 103.844 47.3926 104.766 47.7745C105.688 48.1564 106.476 48.8031 107.03 49.6327C107.584 50.4624 107.88 51.4378 107.88 52.4356C107.88 53.0983 107.75 53.7544 107.496 54.3666C107.243 54.9788 106.871 55.5351 106.402 56.0036C105.934 56.4721 105.377 56.8437 104.765 57.0972C104.153 57.3506 103.496 57.481 102.834 57.4808Z" fill="#999999"/>
</svg>
