<svg width="171" height="171" viewBox="0 0 171 171" fill="none" xmlns="http://www.w3.org/2000/svg">
<g clip-path="url(#clip0_4027_4619)">
<path d="M85.5 0C38.2869 0 0 38.2869 0 85.5C0 132.713 38.2869 171 85.5 171C132.713 171 171 132.713 171 85.5C171 38.2869 132.713 0 85.5 0ZM60.6547 129.252H39.8316V66.6051H60.6547V129.252ZM50.2438 58.0507H50.1081C43.1205 58.0507 38.6013 53.2405 38.6013 47.2288C38.6013 41.0814 43.2588 36.4043 50.3821 36.4043C57.5053 36.4043 61.8889 41.0814 62.0246 47.2288C62.0246 53.2405 57.5053 58.0507 50.2438 58.0507ZM135.739 129.252H114.918V95.7374C114.918 87.3147 111.903 81.5705 104.369 81.5705C98.6167 81.5705 95.1908 85.4452 93.6852 89.1856C93.1347 90.5241 93.0003 92.395 93.0003 94.2671V129.252H72.1785C72.1785 129.252 72.4511 72.4824 72.1785 66.6051H93.0003V75.4753C95.7674 71.2065 100.718 65.1348 111.766 65.1348C125.466 65.1348 135.739 74.0884 135.739 93.3304V129.252Z" fill="#999999"/>
</g>
<defs>
<clipPath id="clip0_4027_4619">
<rect width="171" height="171" fill="white"/>
</clipPath>
</defs>
</svg>
