<svg width="76" height="70" viewBox="0 0 76 70" fill="none" xmlns="http://www.w3.org/2000/svg">
<path d="M30.3029 60.2908L29.5823 59.0634C24.1776 49.8552 9.80105 30.2938 9.65605 30.0973L9.23438 29.5242L14.6431 24.1811L30.1204 34.9885C39.8207 22.452 48.8573 13.8241 54.7689 8.76773C61.2994 3.18159 65.4342 0.68198 65.6062 0.57829L65.8017 0.460938H75.3314L73.7176 1.89829C53.3379 20.0501 31.2282 58.6661 31.0072 59.0541L30.3029 60.2908Z" fill="#ED396C"/>
<path d="M1.98776 13.5348C2.71451 13.5348 3.30365 12.9459 3.30365 12.2195C3.30365 11.4931 2.71451 10.9043 1.98776 10.9043C1.26102 10.9043 0.671875 11.4931 0.671875 12.2195C0.671875 12.9459 1.26102 13.5348 1.98776 13.5348Z" fill="#FFD0DD"/>
<path d="M7.12057 13.5348C7.84732 13.5348 8.43646 12.9459 8.43646 12.2195C8.43646 11.4931 7.84732 10.9043 7.12057 10.9043C6.39383 10.9043 5.80469 11.4931 5.80469 12.2195C5.80469 12.9459 6.39383 13.5348 7.12057 13.5348Z" fill="#FFD0DD"/>
<path d="M12.2534 13.5348C12.9801 13.5348 13.5693 12.9459 13.5693 12.2195C13.5693 11.4931 12.9801 10.9043 12.2534 10.9043C11.5266 10.9043 10.9375 11.4931 10.9375 12.2195C10.9375 12.9459 11.5266 13.5348 12.2534 13.5348Z" fill="#FFD0DD"/>
<path d="M17.3862 13.5348C18.1129 13.5348 18.7021 12.9459 18.7021 12.2195C18.7021 11.4931 18.1129 10.9043 17.3862 10.9043C16.6595 10.9043 16.0703 11.4931 16.0703 12.2195C16.0703 12.9459 16.6595 13.5348 17.3862 13.5348Z" fill="#FFD0DD"/>
<path d="M22.519 13.5348C23.2458 13.5348 23.8349 12.9459 23.8349 12.2195C23.8349 11.4931 23.2458 10.9043 22.519 10.9043C21.7923 10.9043 21.2031 11.4931 21.2031 12.2195C21.2031 12.9459 21.7923 13.5348 22.519 13.5348Z" fill="#FFD0DD"/>
<path d="M27.6518 13.5348C28.3786 13.5348 28.9677 12.9459 28.9677 12.2195C28.9677 11.4931 28.3786 10.9043 27.6518 10.9043C26.9251 10.9043 26.3359 11.4931 26.3359 12.2195C26.3359 12.9459 26.9251 13.5348 27.6518 13.5348Z" fill="#FFD0DD"/>
<path d="M32.7846 13.5348C33.5114 13.5348 34.1005 12.9459 34.1005 12.2195C34.1005 11.4931 33.5114 10.9043 32.7846 10.9043C32.0579 10.9043 31.4688 11.4931 31.4688 12.2195C31.4688 12.9459 32.0579 13.5348 32.7846 13.5348Z" fill="#FFD0DD"/>
<path d="M37.9174 13.5348C38.6442 13.5348 39.2333 12.9459 39.2333 12.2195C39.2333 11.4931 38.6442 10.9043 37.9174 10.9043C37.1907 10.9043 36.6016 11.4931 36.6016 12.2195C36.6016 12.9459 37.1907 13.5348 37.9174 13.5348Z" fill="#FFD0DD"/>
<path d="M43.0503 13.5348C43.777 13.5348 44.3661 12.9459 44.3661 12.2195C44.3661 11.4931 43.777 10.9043 43.0503 10.9043C42.3235 10.9043 41.7344 11.4931 41.7344 12.2195C41.7344 12.9459 42.3235 13.5348 43.0503 13.5348Z" fill="#FFD0DD"/>
<path d="M1.98776 70.0006C2.71451 70.0006 3.30365 69.4117 3.30365 68.6853C3.30365 67.959 2.71451 67.3701 1.98776 67.3701C1.26102 67.3701 0.671875 67.959 0.671875 68.6853C0.671875 69.4117 1.26102 70.0006 1.98776 70.0006Z" fill="#FFD0DD"/>
<path d="M7.12057 70.0006C7.84732 70.0006 8.43646 69.4117 8.43646 68.6853C8.43646 67.959 7.84732 67.3701 7.12057 67.3701C6.39383 67.3701 5.80469 67.959 5.80469 68.6853C5.80469 69.4117 6.39383 70.0006 7.12057 70.0006Z" fill="#FFD0DD"/>
<path d="M12.2534 70.0006C12.9801 70.0006 13.5693 69.4117 13.5693 68.6853C13.5693 67.959 12.9801 67.3701 12.2534 67.3701C11.5266 67.3701 10.9375 67.959 10.9375 68.6853C10.9375 69.4117 11.5266 70.0006 12.2534 70.0006Z" fill="#FFD0DD"/>
<path d="M17.3862 70.0006C18.1129 70.0006 18.7021 69.4117 18.7021 68.6853C18.7021 67.959 18.1129 67.3701 17.3862 67.3701C16.6595 67.3701 16.0703 67.959 16.0703 68.6853C16.0703 69.4117 16.6595 70.0006 17.3862 70.0006Z" fill="#FFD0DD"/>
<path d="M22.519 70.0006C23.2458 70.0006 23.8349 69.4117 23.8349 68.6853C23.8349 67.959 23.2458 67.3701 22.519 67.3701C21.7923 67.3701 21.2031 67.959 21.2031 68.6853C21.2031 69.4117 21.7923 70.0006 22.519 70.0006Z" fill="#FFD0DD"/>
<path d="M27.6518 70.0006C28.3786 70.0006 28.9677 69.4117 28.9677 68.6853C28.9677 67.959 28.3786 67.3701 27.6518 67.3701C26.9251 67.3701 26.3359 67.959 26.3359 68.6853C26.3359 69.4117 26.9251 70.0006 27.6518 70.0006Z" fill="#FFD0DD"/>
<path d="M32.7846 70.0006C33.5114 70.0006 34.1005 69.4117 34.1005 68.6853C34.1005 67.959 33.5114 67.3701 32.7846 67.3701C32.0579 67.3701 31.4688 67.959 31.4688 68.6853C31.4688 69.4117 32.0579 70.0006 32.7846 70.0006Z" fill="#FFD0DD"/>
<path d="M37.9174 70.0006C38.6442 70.0006 39.2333 69.4117 39.2333 68.6853C39.2333 67.959 38.6442 67.3701 37.9174 67.3701C37.1907 67.3701 36.6016 67.959 36.6016 68.6853C36.6016 69.4117 37.1907 70.0006 37.9174 70.0006Z" fill="#FFD0DD"/>
<path d="M43.0503 70.0006C43.777 70.0006 44.3661 69.4117 44.3661 68.6853C44.3661 67.959 43.777 67.3701 43.0503 67.3701C42.3235 67.3701 41.7344 67.959 41.7344 68.6853C41.7344 69.4117 42.3235 70.0006 43.0503 70.0006Z" fill="#FFD0DD"/>
<path d="M48.1831 70.0006C48.9098 70.0006 49.499 69.4117 49.499 68.6853C49.499 67.959 48.9098 67.3701 48.1831 67.3701C47.4563 67.3701 46.8672 67.959 46.8672 68.6853C46.8672 69.4117 47.4563 70.0006 48.1831 70.0006Z" fill="#FFD0DD"/>
<path d="M53.3159 70.0006C54.0426 70.0006 54.6318 69.4117 54.6318 68.6853C54.6318 67.959 54.0426 67.3701 53.3159 67.3701C52.5891 67.3701 52 67.959 52 68.6853C52 69.4117 52.5891 70.0006 53.3159 70.0006Z" fill="#FFD0DD"/>
<path d="M58.4565 70.0006C59.1833 70.0006 59.7724 69.4117 59.7724 68.6853C59.7724 67.959 59.1833 67.3701 58.4565 67.3701C57.7298 67.3701 57.1406 67.959 57.1406 68.6853C57.1406 69.4117 57.7298 70.0006 58.4565 70.0006Z" fill="#FFD0DD"/>
<path d="M1.9871 64.8671C2.71349 64.8671 3.30233 64.278 3.30233 63.5512C3.30233 62.8245 2.71349 62.2354 1.9871 62.2354C1.26072 62.2354 0.671875 62.8245 0.671875 63.5512C0.671875 64.278 1.26072 64.8671 1.9871 64.8671Z" fill="#FFD0DD"/>
<path d="M1.9871 59.7343C2.71349 59.7343 3.30233 59.1452 3.30233 58.4184C3.30233 57.6917 2.71349 57.1025 1.9871 57.1025C1.26072 57.1025 0.671875 57.6917 0.671875 58.4184C0.671875 59.1452 1.26072 59.7343 1.9871 59.7343Z" fill="#FFD0DD"/>
<path d="M1.9871 54.6015C2.71349 54.6015 3.30233 54.0124 3.30233 53.2856C3.30233 52.5589 2.71349 51.9697 1.9871 51.9697C1.26072 51.9697 0.671875 52.5589 0.671875 53.2856C0.671875 54.0124 1.26072 54.6015 1.9871 54.6015Z" fill="#FFD0DD"/>
<path d="M1.9871 49.4677C2.71349 49.4677 3.30233 48.8786 3.30233 48.1518C3.30233 47.4251 2.71349 46.8359 1.9871 46.8359C1.26072 46.8359 0.671875 47.4251 0.671875 48.1518C0.671875 48.8786 1.26072 49.4677 1.9871 49.4677Z" fill="#FFD0DD"/>
<path d="M1.9871 44.3349C2.71349 44.3349 3.30233 43.7458 3.30233 43.019C3.30233 42.2923 2.71349 41.7031 1.9871 41.7031C1.26072 41.7031 0.671875 42.2923 0.671875 43.019C0.671875 43.7458 1.26072 44.3349 1.9871 44.3349Z" fill="#FFD0DD"/>
<path d="M1.9871 39.2021C2.71349 39.2021 3.30233 38.6129 3.30233 37.8862C3.30233 37.1595 2.71349 36.5703 1.9871 36.5703C1.26072 36.5703 0.671875 37.1595 0.671875 37.8862C0.671875 38.6129 1.26072 39.2021 1.9871 39.2021Z" fill="#FFD0DD"/>
<path d="M1.9871 34.0683C2.71349 34.0683 3.30233 33.4792 3.30233 32.7524C3.30233 32.0257 2.71349 31.4365 1.9871 31.4365C1.26072 31.4365 0.671875 32.0257 0.671875 32.7524C0.671875 33.4792 1.26072 34.0683 1.9871 34.0683Z" fill="#FFD0DD"/>
<path d="M1.9871 28.9355C2.71349 28.9355 3.30233 28.3463 3.30233 27.6196C3.30233 26.8929 2.71349 26.3037 1.9871 26.3037C1.26072 26.3037 0.671875 26.8929 0.671875 27.6196C0.671875 28.3463 1.26072 28.9355 1.9871 28.9355Z" fill="#FFD0DD"/>
<path d="M1.9871 23.8027C2.71349 23.8027 3.30233 23.2135 3.30233 22.4868C3.30233 21.76 2.71349 21.1709 1.9871 21.1709C1.26072 21.1709 0.671875 21.76 0.671875 22.4868C0.671875 23.2135 1.26072 23.8027 1.9871 23.8027Z" fill="#FFD0DD"/>
<path d="M1.9871 18.6689C2.71349 18.6689 3.30233 18.0797 3.30233 17.353C3.30233 16.6263 2.71349 16.0371 1.9871 16.0371C1.26072 16.0371 0.671875 16.6263 0.671875 17.353C0.671875 18.0797 1.26072 18.6689 1.9871 18.6689Z" fill="#FFD0DD"/>
<path d="M58.4559 64.8671C59.1822 64.8671 59.7711 64.278 59.7711 63.5512C59.7711 62.8245 59.1822 62.2354 58.4559 62.2354C57.7295 62.2354 57.1406 62.8245 57.1406 63.5512C57.1406 64.278 57.7295 64.8671 58.4559 64.8671Z" fill="#FFD0DD"/>
<path d="M58.4559 59.7343C59.1822 59.7343 59.7711 59.1452 59.7711 58.4184C59.7711 57.6917 59.1822 57.1025 58.4559 57.1025C57.7295 57.1025 57.1406 57.6917 57.1406 58.4184C57.1406 59.1452 57.7295 59.7343 58.4559 59.7343Z" fill="#FFD0DD"/>
<path d="M58.4559 54.6015C59.1822 54.6015 59.7711 54.0124 59.7711 53.2856C59.7711 52.5589 59.1822 51.9697 58.4559 51.9697C57.7295 51.9697 57.1406 52.5589 57.1406 53.2856C57.1406 54.0124 57.7295 54.6015 58.4559 54.6015Z" fill="#FFD0DD"/>
<path d="M58.4559 49.4677C59.1822 49.4677 59.7711 48.8786 59.7711 48.1518C59.7711 47.4251 59.1822 46.8359 58.4559 46.8359C57.7295 46.8359 57.1406 47.4251 57.1406 48.1518C57.1406 48.8786 57.7295 49.4677 58.4559 49.4677Z" fill="#FFD0DD"/>
<path d="M58.4559 44.3349C59.1822 44.3349 59.7711 43.7458 59.7711 43.019C59.7711 42.2923 59.1822 41.7031 58.4559 41.7031C57.7295 41.7031 57.1406 42.2923 57.1406 43.019C57.1406 43.7458 57.7295 44.3349 58.4559 44.3349Z" fill="#FFD0DD"/>
<path d="M58.4559 39.2021C59.1822 39.2021 59.7711 38.6129 59.7711 37.8862C59.7711 37.1595 59.1822 36.5703 58.4559 36.5703C57.7295 36.5703 57.1406 37.1595 57.1406 37.8862C57.1406 38.6129 57.7295 39.2021 58.4559 39.2021Z" fill="#FFD0DD"/>
<path d="M58.4559 34.0683C59.1822 34.0683 59.7711 33.4792 59.7711 32.7524C59.7711 32.0257 59.1822 31.4365 58.4559 31.4365C57.7295 31.4365 57.1406 32.0257 57.1406 32.7524C57.1406 33.4792 57.7295 34.0683 58.4559 34.0683Z" fill="#FFD0DD"/>
<path d="M58.4559 28.9355C59.1822 28.9355 59.7711 28.3463 59.7711 27.6196C59.7711 26.8929 59.1822 26.3037 58.4559 26.3037C57.7295 26.3037 57.1406 26.8929 57.1406 27.6196C57.1406 28.3463 57.7295 28.9355 58.4559 28.9355Z" fill="#FFD0DD"/>
</svg>
