<svg width="153" height="153" viewBox="0 0 153 153" fill="none" xmlns="http://www.w3.org/2000/svg">
<g clip-path="url(#clip0_4027_4615)">
<path d="M76.5 0C34.3181 0 0 34.3181 0 76.5C0 118.679 34.3181 153 76.5 153C118.679 153 153 118.679 153 76.5C153 34.3181 118.685 0 76.5 0ZM95.5248 79.1932H83.0789V123.554H64.6364C64.6364 123.554 64.6364 99.315 64.6364 79.1932H55.8697V63.5148H64.6364V53.3737C64.6364 46.1108 68.0876 34.7618 83.2484 34.7618L96.9146 34.8142V50.0334C96.9146 50.0334 88.6101 50.0334 86.9954 50.0334C85.3807 50.0334 83.085 50.8408 83.085 54.3043V63.5179H97.1364L95.5248 79.1932Z" fill="#999999"/>
</g>
<defs>
<clipPath id="clip0_4027_4615">
<rect width="153" height="153" fill="white"/>
</clipPath>
</defs>
</svg>
