<svg width="169" height="169" viewBox="0 0 169 169" fill="none" xmlns="http://www.w3.org/2000/svg">
<path fill-rule="evenodd" clip-rule="evenodd" d="M84.7087 0C37.9728 0 0 37.6934 0 84.5012C0 131.307 37.9728 169 84.7087 169C131.445 169 169 131.307 169 84.5012C169 37.6934 131.444 0 84.7087 0ZM91.3852 107.283C85.126 106.868 82.6223 103.555 77.6149 100.655C75.1112 114.737 71.7729 127.992 62.1754 135.034C59.2544 113.91 66.3481 98.1704 69.6865 81.1863C63.8444 71.6595 70.521 51.7776 82.6222 56.7475C97.6445 62.5472 69.6865 93.1983 88.4642 96.9257C108.494 101.068 116.422 62.5472 104.321 50.1202C86.3776 32.3086 52.5778 49.7053 56.7507 75.3867C58.0025 81.6013 64.2618 83.6713 59.6717 92.3708C47.9877 89.8859 44.6494 80.7714 45.0666 69.1744C45.9011 49.7053 62.5925 36.0358 79.7012 33.9659C100.983 31.481 121.012 41.8356 123.516 61.7173C126.854 84.5011 113.918 108.94 91.3852 107.283Z" fill="#999999"/>
</svg>
