<svg width="153" height="153" viewBox="0 0 153 153" fill="none" xmlns="http://www.w3.org/2000/svg">
<g clip-path="url(#clip0_4027_4627)">
<path d="M76.5 0C34.2567 0 0 34.2567 0 76.5C0 118.743 34.2567 153 76.5 153C118.743 153 153 118.743 153 76.5C153 34.2567 118.743 0 76.5 0ZM111.429 59.6466C111.463 60.3995 111.479 61.1559 111.479 61.9158C111.479 85.1182 93.818 111.874 61.5201 111.875C51.6039 111.875 42.3764 108.968 34.6057 103.988C35.9796 104.15 37.378 104.23 38.794 104.23C47.0211 104.23 54.5922 101.424 60.6026 96.7141C52.9159 96.5717 46.4351 91.4951 44.1985 84.5182C45.269 84.7236 46.3697 84.8357 47.4985 84.8357C49.1012 84.8357 50.6537 84.6197 52.1292 84.217C44.0947 82.6085 38.0422 75.5078 38.0422 67.0052C38.0422 66.9258 38.0422 66.8546 38.0446 66.7811C40.4107 68.0966 43.1165 68.8881 45.9974 68.9768C41.2826 65.8309 38.1835 60.4532 38.1835 54.361C38.1835 51.144 39.0531 48.13 40.5612 45.5351C49.2203 56.1598 62.1609 63.1473 76.7545 63.8815C76.4533 62.5952 76.2981 61.2551 76.2981 59.8777C76.2981 50.1844 84.1621 42.3204 93.8589 42.3204C98.9098 42.3204 103.472 44.4554 106.676 47.8685C110.676 47.0794 114.432 45.618 117.826 43.6067C116.513 47.7051 113.73 51.144 110.104 53.3186C113.656 52.8937 117.041 51.9517 120.187 50.5533C117.838 54.0751 114.857 57.1684 111.429 59.6466Z" fill="#999999"/>
</g>
<defs>
<clipPath id="clip0_4027_4627">
<rect width="153" height="153" fill="white"/>
</clipPath>
</defs>
</svg>
