<svg width="162" height="162" viewBox="0 0 162 162" fill="none" xmlns="http://www.w3.org/2000/svg">
<g clip-path="url(#clip0_4027_4609)">
<path d="M69.7656 94.0668L92.2325 81.0321L69.7656 67.9336V94.0668Z" fill="#999999"/>
<path d="M81 0C64.9798 0 49.3192 4.75057 35.9988 13.651C22.6785 22.5514 12.2965 35.2018 6.16579 50.0026C0.0350958 64.8035 -1.56897 81.0899 1.55643 96.8023C4.68183 112.515 12.3963 126.948 23.7244 138.276C35.0524 149.604 49.4853 157.318 65.1977 160.444C80.9102 163.569 97.1966 161.965 111.997 155.834C126.798 149.704 139.449 139.322 148.349 126.001C157.249 112.681 162 97.0203 162 81C162 59.5175 153.466 38.9148 138.276 23.7244C123.085 8.5339 102.483 0 81 0ZM123.632 95.3349C123.633 97.4534 123.217 99.5514 122.407 101.509C121.597 103.467 120.41 105.246 118.912 106.744C117.415 108.243 115.637 109.431 113.68 110.242C111.722 111.053 109.625 111.471 107.506 111.471H54.4939C52.3753 111.471 50.2776 111.053 48.3205 110.242C46.3634 109.431 44.5852 108.243 43.0877 106.744C41.5902 105.246 40.4026 103.467 39.5929 101.509C38.7831 99.5514 38.3671 97.4534 38.3685 95.3349V66.6651C38.3671 64.5466 38.7831 62.4486 39.5929 60.4909C40.4026 58.5333 41.5902 56.7544 43.0877 55.2559C44.5852 53.7574 46.3634 52.5686 48.3205 51.7576C50.2776 50.9465 52.3753 50.5291 54.4939 50.5291H107.506C109.625 50.5291 111.722 50.9465 113.68 51.7576C115.637 52.5686 117.415 53.7574 118.912 55.2559C120.41 56.7544 121.597 58.5333 122.407 60.4909C123.217 62.4486 123.633 64.5466 123.632 66.6651V95.3349Z" fill="#999999"/>
</g>
<defs>
<clipPath id="clip0_4027_4609">
<rect width="162" height="162" fill="white"/>
</clipPath>
</defs>
</svg>
